<svg xmlns="http://www.w3.org/2000/svg" viewBox="0 0 400 400">
  <g fill="none" stroke="#C89B3C" stroke-width="0.6" opacity="0.5">
    <circle cx="200" cy="200" r="190"/>
    <circle cx="200" cy="200" r="160"/>
    <circle cx="200" cy="200" r="130"/>
    <circle cx="200" cy="200" r="100"/>
    <circle cx="200" cy="200" r="70"/>
    <circle cx="200" cy="200" r="40"/>
    <circle cx="200" cy="200" r="15"/>
    <path d="M200 10 L200 390"/>
    <path d="M10 200 L390 200"/>
    <path d="M65 65 L335 335"/>
    <path d="M335 65 L65 335"/>
    <path d="M200 10 Q270 110 390 200 Q270 290 200 390 Q130 290 10 200 Q130 110 200 10Z"/>
    <path d="M200 10 Q320 130 390 200 Q320 270 200 390 Q80 270 10 200 Q80 130 200 10Z"/>
    <ellipse cx="200" cy="200" rx="55" ry="180" transform="rotate(30 200 200)"/>
    <ellipse cx="200" cy="200" rx="55" ry="180" transform="rotate(60 200 200)"/>
    <ellipse cx="200" cy="200" rx="55" ry="180" transform="rotate(90 200 200)"/>
    <ellipse cx="200" cy="200" rx="55" ry="180" transform="rotate(120 200 200)"/>
    <ellipse cx="200" cy="200" rx="55" ry="180" transform="rotate(150 200 200)"/>
    <ellipse cx="200" cy="200" rx="55" ry="180"/>
  </g>
</svg>
